<svg width="31" height="21" viewBox="0 0 31 21" fill="none" xmlns="http://www.w3.org/2000/svg">
<path d="M8.8418 11.7705H3.7793V17H1.14258V4.20312H9.47461V6.33887H3.7793V9.64355H8.8418V11.7705ZM13.5176 17H10.9688V7.49023H13.5176V17ZM10.8193 5.0293C10.8193 4.64844 10.9453 4.33496 11.1973 4.08887C11.4551 3.84277 11.8037 3.71973 12.2432 3.71973C12.6768 3.71973 13.0225 3.84277 13.2803 4.08887C13.5381 4.33496 13.667 4.64844 13.667 5.0293C13.667 5.41602 13.5352 5.73242 13.2715 5.97852C13.0137 6.22461 12.6709 6.34766 12.2432 6.34766C11.8154 6.34766 11.4697 6.22461 11.2061 5.97852C10.9482 5.73242 10.8193 5.41602 10.8193 5.0293ZM17.9561 7.49023L18.0352 8.58887C18.7148 7.73926 19.626 7.31445 20.7686 7.31445C21.7764 7.31445 22.5264 7.61035 23.0186 8.20215C23.5107 8.79395 23.7627 9.67871 23.7744 10.8564V17H21.2344V10.918C21.2344 10.3789 21.1172 9.98926 20.8828 9.74902C20.6484 9.50293 20.2588 9.37988 19.7139 9.37988C18.999 9.37988 18.4629 9.68457 18.1055 10.2939V17H15.5654V7.49023H17.9561Z" fill="white"/>
<circle cx="28" cy="14" r="3" fill="#D53F8C"/>
</svg>
